<svg width="72" height="67" viewBox="0 0 72 67" fill="none" xmlns="http://www.w3.org/2000/svg">
<path d="M37.2916 12.5416H33.7083V19.7083H26.5416V23.2916H33.7083V30.4583H37.2916V23.2916H44.4583V19.7083H37.2916V12.5416ZM35.5 3.58331C25.61 3.58331 17.5833 11.61 17.5833 21.5C17.5833 31.39 25.61 39.4166 35.5 39.4166C45.39 39.4166 53.4166 31.39 53.4166 21.5C53.4166 11.61 45.39 3.58331 35.5 3.58331ZM35.5 35.8333C27.5987 35.8333 21.1666 29.4012 21.1666 21.5C21.1666 13.5987 27.5987 7.16665 35.5 7.16665C43.4012 7.16665 49.8333 13.5987 49.8333 21.5C49.8333 29.4012 43.4012 35.8333 35.5 35.8333Z" fill="black"/>
<path d="M1.98011 61H0.502841L4.77557 49.3636H6.23011L10.5028 61H9.02557L5.5483 51.2045H5.45739L1.98011 61ZM2.52557 56.4545H8.48011V57.7045H2.52557V56.4545ZM15.429 61.1818C14.7017 61.1818 14.0597 60.9981 13.5028 60.6307C12.946 60.2595 12.5104 59.7367 12.196 59.0625C11.8816 58.3845 11.7244 57.5833 11.7244 56.6591C11.7244 55.7424 11.8816 54.947 12.196 54.2727C12.5104 53.5985 12.9479 53.0777 13.5085 52.7102C14.0691 52.3428 14.7169 52.1591 15.4517 52.1591C16.0199 52.1591 16.4688 52.2538 16.7983 52.4432C17.1316 52.6288 17.3854 52.8409 17.5597 53.0795C17.7377 53.3144 17.8759 53.5076 17.9744 53.6591H18.0881V49.3636H19.429V61H18.1335V59.6591H17.9744C17.8759 59.8182 17.7358 60.0189 17.554 60.2614C17.3722 60.5 17.1127 60.714 16.7756 60.9034C16.4384 61.089 15.9896 61.1818 15.429 61.1818ZM15.6108 59.9773C16.1487 59.9773 16.6032 59.8371 16.9744 59.5568C17.3456 59.2727 17.6278 58.8807 17.821 58.3807C18.0142 57.8769 18.1108 57.2955 18.1108 56.6364C18.1108 55.9848 18.0161 55.4148 17.8267 54.9261C17.6373 54.4337 17.357 54.0511 16.9858 53.7784C16.6146 53.5019 16.1563 53.3636 15.6108 53.3636C15.0426 53.3636 14.5691 53.5095 14.1903 53.8011C13.8153 54.089 13.5331 54.4811 13.3438 54.9773C13.1581 55.4697 13.0653 56.0227 13.0653 56.6364C13.0653 57.2576 13.16 57.822 13.3494 58.3295C13.5426 58.8333 13.8267 59.2348 14.2017 59.5341C14.5805 59.8295 15.0502 59.9773 15.6108 59.9773ZM25.3665 61.1818C24.6392 61.1818 23.9972 60.9981 23.4403 60.6307C22.8835 60.2595 22.4479 59.7367 22.1335 59.0625C21.8191 58.3845 21.6619 57.5833 21.6619 56.6591C21.6619 55.7424 21.8191 54.947 22.1335 54.2727C22.4479 53.5985 22.8854 53.0777 23.446 52.7102C24.0066 52.3428 24.6544 52.1591 25.3892 52.1591C25.9574 52.1591 26.4063 52.2538 26.7358 52.4432C27.0691 52.6288 27.3229 52.8409 27.4972 53.0795C27.6752 53.3144 27.8134 53.5076 27.9119 53.6591H28.0256V49.3636H29.3665V61H28.071V59.6591H27.9119C27.8134 59.8182 27.6733 60.0189 27.4915 60.2614C27.3097 60.5 27.0502 60.714 26.7131 60.9034C26.3759 61.089 25.9271 61.1818 25.3665 61.1818ZM25.5483 59.9773C26.0862 59.9773 26.5407 59.8371 26.9119 59.5568C27.2831 59.2727 27.5653 58.8807 27.7585 58.3807C27.9517 57.8769 28.0483 57.2955 28.0483 56.6364C28.0483 55.9848 27.9536 55.4148 27.7642 54.9261C27.5748 54.4337 27.2945 54.0511 26.9233 53.7784C26.5521 53.5019 26.0938 53.3636 25.5483 53.3636C24.9801 53.3636 24.5066 53.5095 24.1278 53.8011C23.7528 54.089 23.4706 54.4811 23.2812 54.9773C23.0956 55.4697 23.0028 56.0227 23.0028 56.6364C23.0028 57.2576 23.0975 57.822 23.2869 58.3295C23.4801 58.8333 23.7642 59.2348 24.1392 59.5341C24.518 59.8295 24.9877 59.9773 25.5483 59.9773ZM45.9176 49.3636V61H44.554L38.2131 51.8636H38.0994V61H36.6903V49.3636H38.054L44.4176 58.5227H44.5312V49.3636H45.9176ZM52.1009 61.1818C51.313 61.1818 50.6217 60.9943 50.027 60.6193C49.4361 60.2443 48.974 59.7197 48.6406 59.0455C48.3111 58.3712 48.1463 57.5833 48.1463 56.6818C48.1463 55.7727 48.3111 54.9792 48.6406 54.3011C48.974 53.6231 49.4361 53.0966 50.027 52.7216C50.6217 52.3466 51.313 52.1591 52.1009 52.1591C52.8887 52.1591 53.5781 52.3466 54.169 52.7216C54.7637 53.0966 55.2259 53.6231 55.5554 54.3011C55.8887 54.9792 56.0554 55.7727 56.0554 56.6818C56.0554 57.5833 55.8887 58.3712 55.5554 59.0455C55.2259 59.7197 54.7637 60.2443 54.169 60.6193C53.5781 60.9943 52.8887 61.1818 52.1009 61.1818ZM52.1009 59.9773C52.6993 59.9773 53.1918 59.8239 53.5781 59.517C53.9645 59.2102 54.2505 58.8068 54.4361 58.3068C54.6217 57.8068 54.7145 57.2652 54.7145 56.6818C54.7145 56.0985 54.6217 55.5549 54.4361 55.0511C54.2505 54.5473 53.9645 54.1402 53.5781 53.8295C53.1918 53.5189 52.6993 53.3636 52.1009 53.3636C51.5024 53.3636 51.0099 53.5189 50.6236 53.8295C50.2372 54.1402 49.9512 54.5473 49.7656 55.0511C49.58 55.5549 49.4872 56.0985 49.4872 56.6818C49.4872 57.2652 49.58 57.8068 49.7656 58.3068C49.9512 58.8068 50.2372 59.2102 50.6236 59.517C51.0099 59.8239 51.5024 59.9773 52.1009 59.9773ZM61.8977 52.2727V53.4091H57.375V52.2727H61.8977ZM58.6932 50.1818H60.0341V58.5C60.0341 58.8788 60.089 59.1629 60.1989 59.3523C60.3125 59.5379 60.4564 59.6629 60.6307 59.7273C60.8087 59.7879 60.9962 59.8182 61.1932 59.8182C61.3409 59.8182 61.4621 59.8106 61.5568 59.7955C61.6515 59.7765 61.7273 59.7614 61.7841 59.75L62.0568 60.9545C61.9659 60.9886 61.839 61.0227 61.6761 61.0568C61.5133 61.0947 61.3068 61.1136 61.0568 61.1136C60.678 61.1136 60.3068 61.0322 59.9432 60.8693C59.5833 60.7064 59.2841 60.4583 59.0455 60.125C58.8106 59.7917 58.6932 59.3712 58.6932 58.8636V50.1818ZM67.4801 61.1818C66.6392 61.1818 65.9138 60.9962 65.304 60.625C64.6979 60.25 64.2301 59.7273 63.9006 59.0568C63.5748 58.3826 63.4119 57.5985 63.4119 56.7045C63.4119 55.8106 63.5748 55.0227 63.9006 54.3409C64.2301 53.6553 64.6884 53.1212 65.2756 52.7386C65.8665 52.3523 66.5559 52.1591 67.3438 52.1591C67.7983 52.1591 68.2472 52.2348 68.6903 52.3864C69.1335 52.5379 69.5369 52.7841 69.9006 53.125C70.2642 53.4621 70.554 53.9091 70.7699 54.4659C70.9858 55.0227 71.0938 55.7083 71.0938 56.5227V57.0909H64.3665V55.9318H69.7301C69.7301 55.4394 69.6316 55 69.4347 54.6136C69.2415 54.2273 68.965 53.9223 68.6051 53.6989C68.2491 53.4754 67.8286 53.3636 67.3438 53.3636C66.8097 53.3636 66.3475 53.4962 65.9574 53.7614C65.571 54.0227 65.2737 54.3636 65.0653 54.7841C64.857 55.2045 64.7528 55.6553 64.7528 56.1364V56.9091C64.7528 57.5682 64.8665 58.1269 65.0938 58.5852C65.3248 59.0398 65.6449 59.3864 66.054 59.625C66.4631 59.8598 66.9384 59.9773 67.4801 59.9773C67.8324 59.9773 68.1506 59.928 68.4347 59.8295C68.7225 59.7273 68.9706 59.5758 69.179 59.375C69.3873 59.1705 69.5483 58.9167 69.6619 58.6136L70.9574 58.9773C70.821 59.4167 70.5919 59.803 70.2699 60.1364C69.9479 60.4659 69.5502 60.7235 69.0767 60.9091C68.6032 61.0909 68.071 61.1818 67.4801 61.1818Z" fill="black"/>
</svg>
