<svg width="70" height="67" viewBox="0 0 70 67" fill="none" xmlns="http://www.w3.org/2000/svg">
<path d="M36.2916 12.5417H32.7083V19.7083H25.5416V23.2917H32.7083V30.4583H36.2916V23.2917H43.4583V19.7083H36.2916V12.5417ZM34.5 3.58334C24.61 3.58334 16.5833 11.61 16.5833 21.5C16.5833 31.39 24.61 39.4167 34.5 39.4167C44.39 39.4167 52.4166 31.39 52.4166 21.5C52.4166 11.61 44.39 3.58334 34.5 3.58334ZM34.5 35.8333C26.5987 35.8333 20.1666 29.4013 20.1666 21.5C20.1666 13.5988 26.5987 7.16668 34.5 7.16668C42.4012 7.16668 48.8333 13.5988 48.8333 21.5C48.8333 29.4013 42.4012 35.8333 34.5 35.8333Z" fill="black"/>
<path d="M2.11293 61H0.635653L4.90838 49.3636H6.36293L10.6357 61H9.15838L5.68111 51.2045H5.5902L2.11293 61ZM2.65838 56.4545H8.61293V57.7045H2.65838V56.4545ZM15.5618 61.1818C14.8345 61.1818 14.1925 60.9981 13.6357 60.6307C13.0788 60.2595 12.6432 59.7367 12.3288 59.0625C12.0144 58.3845 11.8572 57.5833 11.8572 56.6591C11.8572 55.7424 12.0144 54.947 12.3288 54.2727C12.6432 53.5985 13.0807 53.0777 13.6413 52.7102C14.2019 52.3428 14.8497 52.1591 15.5845 52.1591C16.1527 52.1591 16.6016 52.2538 16.9311 52.4432C17.2644 52.6288 17.5182 52.8409 17.6925 53.0795C17.8705 53.3144 18.0088 53.5076 18.1072 53.6591H18.2209V49.3636H19.5618V61H18.2663V59.6591H18.1072C18.0088 59.8182 17.8686 60.0189 17.6868 60.2614C17.505 60.5 17.2455 60.714 16.9084 60.9034C16.5713 61.089 16.1224 61.1818 15.5618 61.1818ZM15.7436 59.9773C16.2815 59.9773 16.736 59.8371 17.1072 59.5568C17.4785 59.2727 17.7607 58.8807 17.9538 58.3807C18.147 57.8769 18.2436 57.2955 18.2436 56.6364C18.2436 55.9848 18.1489 55.4148 17.9595 54.9261C17.7701 54.4337 17.4898 54.0511 17.1186 53.7784C16.7474 53.5019 16.2891 53.3636 15.7436 53.3636C15.1754 53.3636 14.7019 53.5095 14.3232 53.8011C13.9482 54.089 13.666 54.4811 13.4766 54.9773C13.291 55.4697 13.1982 56.0227 13.1982 56.6364C13.1982 57.2576 13.2929 57.822 13.4822 58.3295C13.6754 58.8333 13.9595 59.2348 14.3345 59.5341C14.7133 59.8295 15.183 59.9773 15.7436 59.9773ZM25.4993 61.1818C24.772 61.1818 24.13 60.9981 23.5732 60.6307C23.0163 60.2595 22.5807 59.7367 22.2663 59.0625C21.9519 58.3845 21.7947 57.5833 21.7947 56.6591C21.7947 55.7424 21.9519 54.947 22.2663 54.2727C22.5807 53.5985 23.0182 53.0777 23.5788 52.7102C24.1394 52.3428 24.7872 52.1591 25.522 52.1591C26.0902 52.1591 26.5391 52.2538 26.8686 52.4432C27.2019 52.6288 27.4557 52.8409 27.63 53.0795C27.808 53.3144 27.9463 53.5076 28.0447 53.6591H28.1584V49.3636H29.4993V61H28.2038V59.6591H28.0447C27.9463 59.8182 27.8061 60.0189 27.6243 60.2614C27.4425 60.5 27.183 60.714 26.8459 60.9034C26.5088 61.089 26.0599 61.1818 25.4993 61.1818ZM25.6811 59.9773C26.219 59.9773 26.6735 59.8371 27.0447 59.5568C27.416 59.2727 27.6982 58.8807 27.8913 58.3807C28.0845 57.8769 28.1811 57.2955 28.1811 56.6364C28.1811 55.9848 28.0864 55.4148 27.897 54.9261C27.7076 54.4337 27.4273 54.0511 27.0561 53.7784C26.6849 53.5019 26.2266 53.3636 25.6811 53.3636C25.1129 53.3636 24.6394 53.5095 24.2607 53.8011C23.8857 54.089 23.6035 54.4811 23.4141 54.9773C23.2285 55.4697 23.1357 56.0227 23.1357 56.6364C23.1357 57.2576 23.2304 57.822 23.4197 58.3295C23.6129 58.8333 23.897 59.2348 24.272 59.5341C24.6508 59.8295 25.1205 59.9773 25.6811 59.9773ZM46.0504 49.3636V61H44.6868L38.3459 51.8636H38.2322V61H36.8232V49.3636H38.1868L44.5504 58.5227H44.6641V49.3636H46.0504ZM52.3473 61.1818C51.5064 61.1818 50.781 60.9962 50.1712 60.625C49.5651 60.25 49.0973 59.7273 48.7678 59.0568C48.442 58.3826 48.2791 57.5985 48.2791 56.7045C48.2791 55.8106 48.442 55.0227 48.7678 54.3409C49.0973 53.6553 49.5556 53.1212 50.1428 52.7386C50.7337 52.3523 51.4231 52.1591 52.2109 52.1591C52.6655 52.1591 53.1143 52.2348 53.5575 52.3864C54.0007 52.5379 54.4041 52.7841 54.7678 53.125C55.1314 53.4621 55.4212 53.9091 55.6371 54.4659C55.853 55.0227 55.9609 55.7083 55.9609 56.5227V57.0909H49.2337V55.9318H54.5973C54.5973 55.4394 54.4988 55 54.3018 54.6136C54.1087 54.2273 53.8321 53.9223 53.4723 53.6989C53.1162 53.4754 52.6958 53.3636 52.2109 53.3636C51.6768 53.3636 51.2147 53.4962 50.8246 53.7614C50.4382 54.0227 50.1409 54.3636 49.9325 54.7841C49.7242 55.2045 49.62 55.6553 49.62 56.1364V56.9091C49.62 57.5682 49.7337 58.1269 49.9609 58.5852C50.192 59.0398 50.5121 59.3864 50.9212 59.625C51.3303 59.8598 51.8056 59.9773 52.3473 59.9773C52.6996 59.9773 53.0178 59.928 53.3018 59.8295C53.5897 59.7273 53.8378 59.5758 54.0462 59.375C54.2545 59.1705 54.4155 58.9167 54.5291 58.6136L55.8246 58.9773C55.6882 59.4167 55.459 59.803 55.1371 60.1364C54.8151 60.4659 54.4174 60.7235 53.9439 60.9091C53.4704 61.0909 52.9382 61.1818 52.3473 61.1818ZM59.978 61L57.3189 52.2727H58.728L60.6143 58.9545H60.7053L62.5689 52.2727H64.0007L65.8416 58.9318H65.9325L67.8189 52.2727H69.228L66.5689 61H65.2507L63.3416 54.2955H63.2053L61.2962 61H59.978Z" fill="black"/>
</svg>
