<svg width="120" height="96" viewBox="0 0 120 96" fill="none" xmlns="http://www.w3.org/2000/svg">
<g filter="url(#filter0_d_98_3686)">
<rect x="5" y="4" width="104" height="80" rx="40" fill="#F8F8F8"/>
<path d="M58.2916 23.5417H54.7083V30.7083H47.5416V34.2917H54.7083V41.4583H58.2916V34.2917H65.4583V30.7083H58.2916V23.5417ZM56.5 14.5833C46.61 14.5833 38.5833 22.61 38.5833 32.5C38.5833 42.39 46.61 50.4167 56.5 50.4167C66.39 50.4167 74.4166 42.39 74.4166 32.5C74.4166 22.61 66.39 14.5833 56.5 14.5833ZM56.5 46.8333C48.5987 46.8333 42.1666 40.4013 42.1666 32.5C42.1666 24.5988 48.5987 18.1667 56.5 18.1667C64.4012 18.1667 70.8333 24.5988 70.8333 32.5C70.8333 40.4013 64.4012 46.8333 56.5 46.8333Z" fill="black"/>
<path d="M24.1129 72H22.6357L26.9084 60.3636H28.3629L32.6357 72H31.1584L27.6811 62.2045H27.5902L24.1129 72ZM24.6584 67.4545H30.6129V68.7045H24.6584V67.4545ZM37.5618 72.1818C36.8345 72.1818 36.1925 71.9981 35.6357 71.6307C35.0788 71.2595 34.6432 70.7367 34.3288 70.0625C34.0144 69.3845 33.8572 68.5833 33.8572 67.6591C33.8572 66.7424 34.0144 65.947 34.3288 65.2727C34.6432 64.5985 35.0807 64.0777 35.6413 63.7102C36.2019 63.3428 36.8497 63.1591 37.5845 63.1591C38.1527 63.1591 38.6016 63.2538 38.9311 63.4432C39.2644 63.6288 39.5182 63.8409 39.6925 64.0795C39.8705 64.3144 40.0088 64.5076 40.1072 64.6591H40.2209V60.3636H41.5618V72H40.2663V70.6591H40.1072C40.0088 70.8182 39.8686 71.0189 39.6868 71.2614C39.505 71.5 39.2455 71.714 38.9084 71.9034C38.5713 72.089 38.1224 72.1818 37.5618 72.1818ZM37.7436 70.9773C38.2815 70.9773 38.736 70.8371 39.1072 70.5568C39.4785 70.2727 39.7607 69.8807 39.9538 69.3807C40.147 68.8769 40.2436 68.2955 40.2436 67.6364C40.2436 66.9848 40.1489 66.4148 39.9595 65.9261C39.7701 65.4337 39.4898 65.0511 39.1186 64.7784C38.7474 64.5019 38.2891 64.3636 37.7436 64.3636C37.1754 64.3636 36.7019 64.5095 36.3232 64.8011C35.9482 65.089 35.666 65.4811 35.4766 65.9773C35.291 66.4697 35.1982 67.0227 35.1982 67.6364C35.1982 68.2576 35.2929 68.822 35.4822 69.3295C35.6754 69.8333 35.9595 70.2348 36.3345 70.5341C36.7133 70.8295 37.183 70.9773 37.7436 70.9773ZM47.4993 72.1818C46.772 72.1818 46.13 71.9981 45.5732 71.6307C45.0163 71.2595 44.5807 70.7367 44.2663 70.0625C43.9519 69.3845 43.7947 68.5833 43.7947 67.6591C43.7947 66.7424 43.9519 65.947 44.2663 65.2727C44.5807 64.5985 45.0182 64.0777 45.5788 63.7102C46.1394 63.3428 46.7872 63.1591 47.522 63.1591C48.0902 63.1591 48.5391 63.2538 48.8686 63.4432C49.2019 63.6288 49.4557 63.8409 49.63 64.0795C49.808 64.3144 49.9463 64.5076 50.0447 64.6591H50.1584V60.3636H51.4993V72H50.2038V70.6591H50.0447C49.9463 70.8182 49.8061 71.0189 49.6243 71.2614C49.4425 71.5 49.183 71.714 48.8459 71.9034C48.5088 72.089 48.0599 72.1818 47.4993 72.1818ZM47.6811 70.9773C48.219 70.9773 48.6735 70.8371 49.0447 70.5568C49.416 70.2727 49.6982 69.8807 49.8913 69.3807C50.0845 68.8769 50.1811 68.2955 50.1811 67.6364C50.1811 66.9848 50.0864 66.4148 49.897 65.9261C49.7076 65.4337 49.4273 65.0511 49.0561 64.7784C48.6849 64.5019 48.2266 64.3636 47.6811 64.3636C47.1129 64.3636 46.6394 64.5095 46.2607 64.8011C45.8857 65.089 45.6035 65.4811 45.4141 65.9773C45.2285 66.4697 45.1357 67.0227 45.1357 67.6364C45.1357 68.2576 45.2304 68.822 45.4197 69.3295C45.6129 69.8333 45.897 70.2348 46.272 70.5341C46.6508 70.8295 47.1205 70.9773 47.6811 70.9773ZM68.0504 60.3636V72H66.6868L60.3459 62.8636H60.2322V72H58.8232V60.3636H60.1868L66.5504 69.5227H66.6641V60.3636H68.0504ZM74.3473 72.1818C73.5064 72.1818 72.781 71.9962 72.1712 71.625C71.5651 71.25 71.0973 70.7273 70.7678 70.0568C70.442 69.3826 70.2791 68.5985 70.2791 67.7045C70.2791 66.8106 70.442 66.0227 70.7678 65.3409C71.0973 64.6553 71.5556 64.1212 72.1428 63.7386C72.7337 63.3523 73.4231 63.1591 74.2109 63.1591C74.6655 63.1591 75.1143 63.2348 75.5575 63.3864C76.0007 63.5379 76.4041 63.7841 76.7678 64.125C77.1314 64.4621 77.4212 64.9091 77.6371 65.4659C77.853 66.0227 77.9609 66.7083 77.9609 67.5227V68.0909H71.2337V66.9318H76.5973C76.5973 66.4394 76.4988 66 76.3018 65.6136C76.1087 65.2273 75.8321 64.9223 75.4723 64.6989C75.1162 64.4754 74.6958 64.3636 74.2109 64.3636C73.6768 64.3636 73.2147 64.4962 72.8246 64.7614C72.4382 65.0227 72.1409 65.3636 71.9325 65.7841C71.7242 66.2045 71.62 66.6553 71.62 67.1364V67.9091C71.62 68.5682 71.7337 69.1269 71.9609 69.5852C72.192 70.0398 72.5121 70.3864 72.9212 70.625C73.3303 70.8598 73.8056 70.9773 74.3473 70.9773C74.6996 70.9773 75.0178 70.928 75.3018 70.8295C75.5897 70.7273 75.8378 70.5758 76.0462 70.375C76.2545 70.1705 76.4155 69.9167 76.5291 69.6136L77.8246 69.9773C77.6882 70.4167 77.459 70.803 77.1371 71.1364C76.8151 71.4659 76.4174 71.7235 75.9439 71.9091C75.4704 72.0909 74.9382 72.1818 74.3473 72.1818ZM81.978 72L79.3189 63.2727H80.728L82.6143 69.9545H82.7053L84.5689 63.2727H86.0007L87.8416 69.9318H87.9325L89.8189 63.2727H91.228L88.5689 72H87.2507L85.3416 65.2955H85.2053L83.2962 72H81.978Z" fill="black"/>
</g>
<defs>
<filter id="filter0_d_98_3686" x="0" y="0" width="120" height="96" filterUnits="userSpaceOnUse" color-interpolation-filters="sRGB">
<feFlood flood-opacity="0" result="BackgroundImageFix"/>
<feColorMatrix in="SourceAlpha" type="matrix" values="0 0 0 0 0 0 0 0 0 0 0 0 0 0 0 0 0 0 127 0" result="hardAlpha"/>
<feOffset dx="3" dy="4"/>
<feGaussianBlur stdDeviation="4"/>
<feComposite in2="hardAlpha" operator="out"/>
<feColorMatrix type="matrix" values="0 0 0 0 0 0 0 0 0 0 0 0 0 0 0 0 0 0 0.08 0"/>
<feBlend mode="normal" in2="BackgroundImageFix" result="effect1_dropShadow_98_3686"/>
<feBlend mode="normal" in="SourceGraphic" in2="effect1_dropShadow_98_3686" result="shape"/>
</filter>
</defs>
</svg>
