<svg width="99" height="66" viewBox="0 0 99 66" fill="none" xmlns="http://www.w3.org/2000/svg">
<path d="M65.625 9.28081L45.1821 29.7416L37.5854 22.145L40.1117 19.6187L45.1821 24.6891L63.0988 6.77248L65.625 9.28081ZM47.7084 35.8333C39.8071 35.8333 33.375 29.4012 33.375 21.5C33.375 13.5987 39.8071 7.16665 47.7084 7.16665C50.5213 7.16665 53.155 7.99081 55.3767 9.40623L57.9746 6.80831C55.0542 4.78373 51.5246 3.58331 47.7084 3.58331C37.8184 3.58331 29.7917 11.61 29.7917 21.5C29.7917 31.39 37.8184 39.4166 47.7084 39.4166C50.8079 39.4166 53.7284 38.6283 56.2725 37.2308L53.585 34.5433C51.7934 35.3675 49.8046 35.8333 47.7084 35.8333ZM60.25 26.875H54.875V30.4583H60.25V35.8333H63.8334V30.4583H69.2084V26.875H63.8334V21.5H60.25V26.875Z" fill="black"/>
<path d="M7.16761 61H5.69034L9.96307 49.3636H11.4176L15.6903 61H14.2131L10.7358 51.2045H10.6449L7.16761 61ZM7.71307 56.4545H13.6676V57.7045H7.71307V56.4545ZM20.6165 61.1818C19.8892 61.1818 19.2472 60.9981 18.6903 60.6307C18.1335 60.2595 17.6979 59.7367 17.3835 59.0625C17.0691 58.3845 16.9119 57.5833 16.9119 56.6591C16.9119 55.7424 17.0691 54.947 17.3835 54.2727C17.6979 53.5985 18.1354 53.0777 18.696 52.7102C19.2566 52.3428 19.9044 52.1591 20.6392 52.1591C21.2074 52.1591 21.6563 52.2538 21.9858 52.4432C22.3191 52.6288 22.5729 52.8409 22.7472 53.0795C22.9252 53.3144 23.0634 53.5076 23.1619 53.6591H23.2756V49.3636H24.6165V61H23.321V59.6591H23.1619C23.0634 59.8182 22.9233 60.0189 22.7415 60.2614C22.5597 60.5 22.3002 60.714 21.9631 60.9034C21.6259 61.089 21.1771 61.1818 20.6165 61.1818ZM20.7983 59.9773C21.3362 59.9773 21.7907 59.8371 22.1619 59.5568C22.5331 59.2727 22.8153 58.8807 23.0085 58.3807C23.2017 57.8769 23.2983 57.2955 23.2983 56.6364C23.2983 55.9848 23.2036 55.4148 23.0142 54.9261C22.8248 54.4337 22.5445 54.0511 22.1733 53.7784C21.8021 53.5019 21.3438 53.3636 20.7983 53.3636C20.2301 53.3636 19.7566 53.5095 19.3778 53.8011C19.0028 54.089 18.7206 54.4811 18.5312 54.9773C18.3456 55.4697 18.2528 56.0227 18.2528 56.6364C18.2528 57.2576 18.3475 57.822 18.5369 58.3295C18.7301 58.8333 19.0142 59.2348 19.3892 59.5341C19.768 59.8295 20.2377 59.9773 20.7983 59.9773ZM30.554 61.1818C29.8267 61.1818 29.1847 60.9981 28.6278 60.6307C28.071 60.2595 27.6354 59.7367 27.321 59.0625C27.0066 58.3845 26.8494 57.5833 26.8494 56.6591C26.8494 55.7424 27.0066 54.947 27.321 54.2727C27.6354 53.5985 28.0729 53.0777 28.6335 52.7102C29.1941 52.3428 29.8419 52.1591 30.5767 52.1591C31.1449 52.1591 31.5938 52.2538 31.9233 52.4432C32.2566 52.6288 32.5104 52.8409 32.6847 53.0795C32.8627 53.3144 33.0009 53.5076 33.0994 53.6591H33.2131V49.3636H34.554V61H33.2585V59.6591H33.0994C33.0009 59.8182 32.8608 60.0189 32.679 60.2614C32.4972 60.5 32.2377 60.714 31.9006 60.9034C31.5634 61.089 31.1146 61.1818 30.554 61.1818ZM30.7358 59.9773C31.2737 59.9773 31.7282 59.8371 32.0994 59.5568C32.4706 59.2727 32.7528 58.8807 32.946 58.3807C33.1392 57.8769 33.2358 57.2955 33.2358 56.6364C33.2358 55.9848 33.1411 55.4148 32.9517 54.9261C32.7623 54.4337 32.482 54.0511 32.1108 53.7784C31.7396 53.5019 31.2813 53.3636 30.7358 53.3636C30.1676 53.3636 29.6941 53.5095 29.3153 53.8011C28.9403 54.089 28.6581 54.4811 28.4688 54.9773C28.2831 55.4697 28.1903 56.0227 28.1903 56.6364C28.1903 57.2576 28.285 57.822 28.4744 58.3295C28.6676 58.8333 28.9517 59.2348 29.3267 59.5341C29.7055 59.8295 30.1752 59.9773 30.7358 59.9773ZM41.8778 61V49.3636H45.8097C46.7225 49.3636 47.4688 49.5284 48.0483 49.858C48.6316 50.1837 49.0634 50.625 49.3438 51.1818C49.6241 51.7386 49.7642 52.3598 49.7642 53.0455C49.7642 53.7311 49.6241 54.3542 49.3438 54.9148C49.0672 55.4754 48.6392 55.9223 48.0597 56.2557C47.4801 56.5852 46.7377 56.75 45.8324 56.75H43.0142V55.5H45.7869C46.4119 55.5 46.9138 55.392 47.2926 55.1761C47.6714 54.9602 47.946 54.6686 48.1165 54.3011C48.2907 53.9299 48.3778 53.5114 48.3778 53.0455C48.3778 52.5795 48.2907 52.1629 48.1165 51.7955C47.946 51.428 47.6695 51.1402 47.2869 50.9318C46.9044 50.7197 46.3968 50.6136 45.7642 50.6136H43.2869V61H41.8778ZM51.8523 61V52.2727H53.1477V53.5909H53.2386C53.3977 53.1591 53.6856 52.8087 54.1023 52.5398C54.5189 52.2708 54.9886 52.1364 55.5114 52.1364C55.6098 52.1364 55.733 52.1383 55.8807 52.142C56.0284 52.1458 56.1402 52.1515 56.2159 52.1591V53.5227C56.1705 53.5114 56.0663 53.4943 55.9034 53.4716C55.7443 53.4451 55.5758 53.4318 55.3977 53.4318C54.9735 53.4318 54.5947 53.5208 54.2614 53.6989C53.9318 53.8731 53.6705 54.1155 53.4773 54.4261C53.2879 54.733 53.1932 55.0833 53.1932 55.4773V61H51.8523ZM61.0852 61.1818C60.2973 61.1818 59.6061 60.9943 59.0114 60.6193C58.4205 60.2443 57.9583 59.7197 57.625 59.0455C57.2955 58.3712 57.1307 57.5833 57.1307 56.6818C57.1307 55.7727 57.2955 54.9792 57.625 54.3011C57.9583 53.6231 58.4205 53.0966 59.0114 52.7216C59.6061 52.3466 60.2973 52.1591 61.0852 52.1591C61.8731 52.1591 62.5625 52.3466 63.1534 52.7216C63.7481 53.0966 64.2102 53.6231 64.5398 54.3011C64.8731 54.9792 65.0398 55.7727 65.0398 56.6818C65.0398 57.5833 64.8731 58.3712 64.5398 59.0455C64.2102 59.7197 63.7481 60.2443 63.1534 60.6193C62.5625 60.9943 61.8731 61.1818 61.0852 61.1818ZM61.0852 59.9773C61.6837 59.9773 62.1761 59.8239 62.5625 59.517C62.9489 59.2102 63.2348 58.8068 63.4205 58.3068C63.6061 57.8068 63.6989 57.2652 63.6989 56.6818C63.6989 56.0985 63.6061 55.5549 63.4205 55.0511C63.2348 54.5473 62.9489 54.1402 62.5625 53.8295C62.1761 53.5189 61.6837 53.3636 61.0852 53.3636C60.4867 53.3636 59.9943 53.5189 59.608 53.8295C59.2216 54.1402 58.9356 54.5473 58.75 55.0511C58.5644 55.5549 58.4716 56.0985 58.4716 56.6818C58.4716 57.2652 58.5644 57.8068 58.75 58.3068C58.9356 58.8068 59.2216 59.2102 59.608 59.517C59.9943 59.8239 60.4867 59.9773 61.0852 59.9773ZM67.0866 52.2727H68.4276V61.6364C68.4276 62.1742 68.3348 62.6402 68.1491 63.0341C67.9673 63.428 67.6908 63.733 67.3196 63.9489C66.9522 64.1648 66.4882 64.2727 65.9276 64.2727C65.8821 64.2727 65.8366 64.2727 65.7912 64.2727C65.7457 64.2727 65.7003 64.2727 65.6548 64.2727V63.0227C65.7003 63.0227 65.742 63.0227 65.7798 63.0227C65.8177 63.0227 65.8594 63.0227 65.9048 63.0227C66.3139 63.0227 66.6132 62.9015 66.8026 62.6591C66.992 62.4205 67.0866 62.0795 67.0866 61.6364V52.2727ZM67.7457 50.8182C67.4844 50.8182 67.259 50.7292 67.0696 50.5511C66.884 50.3731 66.7912 50.1591 66.7912 49.9091C66.7912 49.6591 66.884 49.4451 67.0696 49.267C67.259 49.089 67.4844 49 67.7457 49C68.0071 49 68.2306 49.089 68.4162 49.267C68.6056 49.4451 68.7003 49.6591 68.7003 49.9091C68.7003 50.1591 68.6056 50.3731 68.4162 50.5511C68.2306 50.7292 68.0071 50.8182 67.7457 50.8182ZM74.5426 61.1818C73.7017 61.1818 72.9763 60.9962 72.3665 60.625C71.7604 60.25 71.2926 59.7273 70.9631 59.0568C70.6373 58.3826 70.4744 57.5985 70.4744 56.7045C70.4744 55.8106 70.6373 55.0227 70.9631 54.3409C71.2926 53.6553 71.7509 53.1212 72.3381 52.7386C72.929 52.3523 73.6184 52.1591 74.4062 52.1591C74.8608 52.1591 75.3097 52.2348 75.7528 52.3864C76.196 52.5379 76.5994 52.7841 76.9631 53.125C77.3267 53.4621 77.6165 53.9091 77.8324 54.4659C78.0483 55.0227 78.1562 55.7083 78.1562 56.5227V57.0909H71.429V55.9318H76.7926C76.7926 55.4394 76.6941 55 76.4972 54.6136C76.304 54.2273 76.0275 53.9223 75.6676 53.6989C75.3116 53.4754 74.8911 53.3636 74.4062 53.3636C73.8722 53.3636 73.41 53.4962 73.0199 53.7614C72.6335 54.0227 72.3362 54.3636 72.1278 54.7841C71.9195 55.2045 71.8153 55.6553 71.8153 56.1364V56.9091C71.8153 57.5682 71.929 58.1269 72.1562 58.5852C72.3873 59.0398 72.7074 59.3864 73.1165 59.625C73.5256 59.8598 74.0009 59.9773 74.5426 59.9773C74.8949 59.9773 75.2131 59.928 75.4972 59.8295C75.785 59.7273 76.0331 59.5758 76.2415 59.375C76.4498 59.1705 76.6108 58.9167 76.7244 58.6136L78.0199 58.9773C77.8835 59.4167 77.6544 59.803 77.3324 60.1364C77.0104 60.4659 76.6127 60.7235 76.1392 60.9091C75.6657 61.0909 75.1335 61.1818 74.5426 61.1818ZM83.7415 61.1818C82.9233 61.1818 82.2188 60.9886 81.6278 60.6023C81.0369 60.2159 80.5824 59.6837 80.2642 59.0057C79.946 58.3277 79.7869 57.553 79.7869 56.6818C79.7869 55.7955 79.9498 55.0133 80.2756 54.3352C80.6051 53.6534 81.0634 53.1212 81.6506 52.7386C82.2415 52.3523 82.9309 52.1591 83.7188 52.1591C84.3324 52.1591 84.8854 52.2727 85.3778 52.5C85.8703 52.7273 86.2737 53.0455 86.5881 53.4545C86.9025 53.8636 87.0975 54.3409 87.1733 54.8864H85.8324C85.7301 54.4886 85.5028 54.1364 85.1506 53.8295C84.8021 53.5189 84.3324 53.3636 83.7415 53.3636C83.2188 53.3636 82.7604 53.5 82.3665 53.7727C81.9763 54.0417 81.6714 54.4223 81.4517 54.9148C81.2358 55.4034 81.1278 55.9773 81.1278 56.6364C81.1278 57.3106 81.2339 57.8977 81.446 58.3977C81.6619 58.8977 81.965 59.286 82.3551 59.5625C82.7491 59.839 83.2112 59.9773 83.7415 59.9773C84.09 59.9773 84.4062 59.9167 84.6903 59.7955C84.9744 59.6742 85.215 59.5 85.4119 59.2727C85.6089 59.0455 85.7491 58.7727 85.8324 58.4545H87.1733C87.0975 58.9697 86.91 59.4337 86.6108 59.8466C86.3153 60.2557 85.9233 60.5814 85.4347 60.8239C84.9498 61.0625 84.3854 61.1818 83.7415 61.1818ZM92.929 52.2727V53.4091H88.4062V52.2727H92.929ZM89.7244 50.1818H91.0653V58.5C91.0653 58.8788 91.1203 59.1629 91.2301 59.3523C91.3438 59.5379 91.4877 59.6629 91.6619 59.7273C91.84 59.7879 92.0275 59.8182 92.2244 59.8182C92.3722 59.8182 92.4934 59.8106 92.5881 59.7955C92.6828 59.7765 92.7585 59.7614 92.8153 59.75L93.0881 60.9545C92.9972 60.9886 92.8703 61.0227 92.7074 61.0568C92.5445 61.0947 92.3381 61.1136 92.0881 61.1136C91.7093 61.1136 91.3381 61.0322 90.9744 60.8693C90.6146 60.7064 90.3153 60.4583 90.0767 60.125C89.8419 59.7917 89.7244 59.3712 89.7244 58.8636V50.1818Z" fill="black"/>
</svg>
